<svg xmlns="http://www.w3.org/2000/svg" viewBox="0 0 128 128">
  <defs>
    <linearGradient id="grad" x1="0%" y1="0%" x2="100%" y2="100%">
      <stop offset="0%" stop-color="#8bc34a" />
      <stop offset="100%" stop-color="#009688" />
    </linearGradient>
  </defs>
  <circle cx="64" cy="64" r="60" fill="url(#grad)" />
  <path d="M82 54c-10-14-38-18-44 6-4 18 14 34 32 24 6-4 8-10 7-16-1-6 5-10 9-6s6 20-8 30c-18 12-42 0-44-22-2-20 16-36 36-36 24 0 36 18 34 38-2 12-8 20-16 26-20 14-50 6-62-18-12-26 4-56 32-62 32-8 62 18 60 50h-12c0-24-16-42-34-44-16-2-34 10-36 28-2 14 8 32 28 30 6 0 12-4 12-10 0-8-10-10-12-2-2 6-12 2-10-6 2-10 16-12 24-6 6 4 8 12 6 20-4 16-20 24-36 22-18-4-32-20-32-40 0-26 20-48 48-50 28-2 54 22 54 52v6H96c0-10-6-18-14-22z" fill="#fff"/>
</svg>
